HIERARCHY
ROOT Hips
{
  OFFSET 265.287 66.7526 -254.649
  CHANNELS 6 Xposition Yposition Zposition Zrotation Xrotation Yrotation
  JOINT LeftUpLeg
  {
    OFFSET 8.64259 1.95398 -2.38835
    CHANNELS 3 Zrotation Xrotation Yrotation
    JOINT LeftLeg
    {
      OFFSET 43.7702 0 0
      CHANNELS 3 Zrotation Xrotation Yrotation
      JOINT LeftFoot
      {
        OFFSET 40.6238 0 0
        CHANNELS 3 Zrotation Xrotation Yrotation
        JOINT LeftToeBase
        {
          OFFSET 12.7242 0 0
          CHANNELS 3 Zrotation Xrotation Yrotation
          End Site
          {
            OFFSET 0 0 0
          }
        }
      }
    }
  }
  JOINT RightUpLeg
  {
    OFFSET -8.2249 1.95398 -2.59336
    CHANNELS 3 Zrotation Xrotation Yrotation
    JOINT RightLeg
    {
      OFFSET 43.5653 0 0
      CHANNELS 3 Zrotation Xrotation Yrotation
      JOINT RightFoot
      {
        OFFSET 40.6238 0 0
        CHANNELS 3 Zrotation Xrotation Yrotation
        JOINT RightToeBase
        {
          OFFSET 12.7242 0 0
          CHANNELS 3 Zrotation Xrotation Yrotation
          End Site
          {
            OFFSET 0 0 0
          }
        }
      }
    }
  }
  JOINT Spine
  {
    OFFSET 0.165834 0.87714 6.61349
    CHANNELS 3 Zrotation Xrotation Yrotation
    JOINT Spine1
    {
      OFFSET 7.38963 1.71661e-005 0
      CHANNELS 3 Zrotation Xrotation Yrotation
      JOINT Spine2
      {
        OFFSET 11.9445 1.14441e-005 0
        CHANNELS 3 Zrotation Xrotation Yrotation
        JOINT Spine3
        {
          OFFSET 14.7254 4.19617e-005 0
          CHANNELS 3 Zrotation Xrotation Yrotation
          JOINT Spine4
          {
            OFFSET 10.9679 0 0
            CHANNELS 3 Zrotation Xrotation Yrotation
            JOINT RightShoulder
            {
              OFFSET 2.46616 -1.6653 3.69651
              CHANNELS 3 Zrotation Xrotation Yrotation
              JOINT RightArm
              {
                OFFSET 13.0012 0 0
                CHANNELS 3 Zrotation Xrotation Yrotation
                JOINT RightForeArm
                {
                  OFFSET 28.7848 1.52588e-005 0
                  CHANNELS 3 Zrotation Xrotation Yrotation
                  JOINT RightHand
                  {
                    OFFSET 26.5688 1.52588e-005 0
                    CHANNELS 3 Zrotation Xrotation Yrotation
                    End Site
                    {
                      OFFSET 0 0 0
                    }
                  }
                }
              }
            }
            JOINT LeftShoulder
            {
              OFFSET 2.38034 -1.29275 -3.7523
              CHANNELS 3 Zrotation Xrotation Yrotation
              JOINT LeftArm
              {
                OFFSET 16.3182 6.10351e-005 0
                CHANNELS 3 Zrotation Xrotation Yrotation
                JOINT LeftForeArm
                {
                  OFFSET 27.0901 0 0
                  CHANNELS 3 Zrotation Xrotation Yrotation
                  JOINT LeftHand
                  {
                    OFFSET 24.5451 1.52588e-005 0
                    CHANNELS 3 Zrotation Xrotation Yrotation
                    End Site
                    {
                      OFFSET 0 0 0
                    }
                  }
                }
              }
            }
            JOINT Neck
            {
              OFFSET 5.0226 -0.0266342 0
              CHANNELS 3 Zrotation Xrotation Yrotation
              JOINT Head
              {
                OFFSET 6.69364 2.86102e-005 0
                CHANNELS 3 Zrotation Xrotation Yrotation
                End Site
                {
                  OFFSET 0 0 0
                }
              }
            }
          }
        }
      }
    }
  }
}
MOTION
Frames:	17
Frame Time:	0.0416667
-273.152 53.9101 -242.623 98.0735 4.64081 87.5803 163.793 23.1034 150.913 -144.938 64.4254 30.227 146.146 11.485 -46.2116 -35.3147 9.49851 17.4859 -126.561 31.0479 42.8227 -102.068 -4.61423 -42.0429 77.9293 -13.7363 35.8607 89.2925 16.5697 56.5008 -4.09507 4.95694 -89.5922 17.0857 -7.85602 2.20863 5.43734 -7.75098 2.56269 -17.2909 -8.1552 -0.267035 2.7218 -8.15522 -0.267043 127.162 -36.0546 -36.9182 65.4338 -42.0844 94.5494 -9.78062 45.4687 -150.903 -7.22086 -5.23438 71.4172 -55.1848 -70.2448 124.351 -119.796 28.4727 139.197 68.5253 -28.7347 -50.9072 94.8728 -27.4735 -28.6035 60.6145 12.4807 -9.16647 -11.9876 28.2184 114.079 
-273.918 54.2687 -243.264 98.1725 4.69825 87.481 164.299 22.8407 149.583 -147.493 64.5882 33.2376 147.066 12.0907 -44.4895 -36.5965 9.66415 17.6584 -126.831 30.4511 43.7765 -102.924 -4.7243 -42.5149 78.094 -14.0362 34.8313 90.0987 16.2891 55.2431 -4.10969 4.97014 -89.5935 17.0601 -7.8861 2.20879 5.41169 -7.78104 2.56287 -17.3178 -8.18382 -0.27639 2.6948 -8.18385 -0.27639 127.09 -35.9587 -36.9814 65.3738 -42.0415 94.7468 -9.67694 45.4366 -151.187 -7.2312 -5.19033 70.8502 -54.5417 -70.9135 124.935 -119.55 28.3665 139.266 68.2997 -28.8372 -50.8803 95.2609 -27.717 -28.6595 60.7293 12.4856 -9.02781 -11.3954 29.1101 113.86 
-276.111 55.3668 -245.08 98.4611 4.8621 87.1911 168.714 23.4907 140.342 -158.543 59.451 46.8777 153.693 15.1124 -37.804 -40.3865 10.0455 18.289 -127.55 28.6145 46.5847 -105.551 -5.0886 -43.7532 78.3687 -14.8914 31.5771 92.3823 15.3692 51.6223 -4.15241 5.0087 -89.5976 16.9848 -7.97402 2.20927 5.3364 -7.86894 2.56341 -17.3972 -8.26729 -0.304422 2.61542 -8.26729 -0.30442 126.888 -35.6869 -37.1611 65.1633 -41.9298 95.2853 -9.37427 45.3248 -152.01 -7.25979 -5.06926 69.2947 -52.4324 -72.8773 126.859 -118.783 28.0782 139.431 67.5488 -29.2194 -50.864 96.3585 -28.5094 -28.8997 59.596 12.9908 -6.85901 -7.20207 36.8444 114.464 
-279.512 57.194 -247.85 98.9267 5.1177 86.7223 -166.081 13.512 112.722 -168.19 23.7674 62.0678 -179.457 27.6841 -25.1712 -46.6631 10.1969 19.7854 -128.239 25.2241 51.1108 -110.311 -5.8712 -45.1665 78.2275 -16.053 25.5258 95.8452 13.5946 45.9276 -4.2214 5.07163 -89.6051 16.8616 -8.11661 2.20678 5.21366 -8.01162 2.5643 -17.527 -8.402 -0.351806 2.48569 -8.40204 -0.35181 126.578 -35.2649 -37.437 64.7262 -41.7887 96.0513 -8.88725 45.0927 -153.327 -7.30162 -4.89796 67.0542 -47.9851 -76.0817 130.963 -117.395 27.6782 139.583 65.9687 -30.1382 -51.0799 97.9985 -30.1187 -29.5905 58.073 14.3491 -3.20059 0.0773835 48.8481 112.763 
-283.829 59.51 -251.323 99.5574 5.44841 86.0858 -148.361 -2.09286 107.819 179.488 0.636089 71.9419 -153.759 47.3827 -27.2513 -55.3298 8.87428 22.9636 -127.503 19.3911 57.0835 -117.798 -7.76084 -45.4375 77.2175 -16.8384 15.847 100.069 10.6612 38.4745 -4.31414 5.15755 -89.6154 16.693 -8.30854 2.19977 5.04627 -8.20364 2.56553 -17.7042 -8.58276 -0.417454 2.30842 -8.58273 -0.417455 126.185 -34.7133 -37.7815 63.9884 -41.6594 96.9202 -8.24043 44.6934 -155.075 -7.34982 -4.70151 64.4362 -37.9477 -80.3927 140.441 -115.251 27.2328 139.575 62.8309 -32.1346 -52.0204 99.7797 -33.1884 -31.3703 58.1239 14.7371 0.244704 9.54112 59.4667 106.252 
-288.767 61.807 -255.278 100.341 5.83522 85.2912 -148.214 -3.54635 112.596 158.677 4.3086 78.5617 -140.102 56.1931 -41.4531 -65.3389 3.12512 29.1015 -122.487 10.0855 64.6503 -128.236 -12.9593 -42.5656 75.6169 -16.2079 1.97436 104.467 6.29159 29.6345 -4.42387 5.2632 -89.6254 16.4855 -8.53468 2.19403 4.84028 -8.42983 2.56996 -17.9222 -8.79649 -0.492429 2.09046 -8.79648 -0.492429 125.733 -34.0314 -38.1553 62.9711 -41.5413 97.825 -7.48881 44.1192 -157.16 -7.39646 -4.49522 61.6681 -4.43047 -84.9333 173.106 -112.288 26.7033 139.307 56.4374 -36.2141 -54.8648 100.408 -38.9697 -35.8685 60.7955 -1.99611 6.04767 77.6185 79.0901 38.2588 
-294.379 63.192 -260.014 101.263 6.25767 84.3489 -148.455 -4.50627 118.926 132.893 3.77533 86.134 -120.472 56.525 -66.5998 -70.8381 -13.218 40.6958 -110.787 -1.84227 74.4389 -139.384 -24.2869 -36.3065 75.8442 -14.2347 -14.1154 107.703 1.14782 20.9771 -4.53244 5.38274 -89.6234 16.2506 -8.75331 2.2065 4.60674 -8.64767 2.59223 -18.1676 -9.0085 -0.547815 1.84504 -9.00853 -0.547812 125.259 -33.182 -38.4771 61.9353 -41.3128 98.8527 -6.74871 43.4819 -159.433 -7.43276 -4.28647 58.8925 75.2461 -83.8006 -108.436 -108.652 25.7473 138.917 41.5385 -44.0384 -63.744 93.9942 -49.3772 -49.108 84.9809 -59.056 29.768 158.22 15.7011 -40.6073 
-300.979 63.7614 -266.126 102.308 6.6942 83.2708 -148.266 -5.26307 125.708 32.2425 -0.739342 88.7305 -31.982 33.1141 178.748 -44.2748 -39.1738 72.789 -98.3133 -9.59677 84.4668 -147.171 -36.3187 -30.2399 79.4357 -14.4337 -25.6039 107.89 -2.27516 15.7112 -4.61006 5.51461 -89.5917 15.9905 -8.89639 2.26249 4.34758 -8.78816 2.6546 -18.4347 -9.16166 -0.538505 1.57791 -9.16168 -0.538503 124.847 -32.1552 -38.5869 61.2646 -40.7578 100.15 -6.16558 42.9816 -161.716 -7.45035 -4.07673 56.1878 102.332 -76.6606 -82.9154 -104.777 23.6468 139.002 -4.0122 -51.98 -98.2009 50.0136 -56.7022 -99.5796 141.562 -71.3267 82.7372 156.858 -9.89979 -54.9727 
-308.149 64.6897 -273.116 103.457 7.12297 82.0707 -147.284 -5.59856 132.507 -27.5212 4.47581 81.8398 -33.3631 11.8991 151.164 18.6561 -22.6101 116.018 -94.8058 -11.5688 87.817 -152.154 -40.1277 -25.7084 82.8931 -19.6216 -26.9248 104.685 -3.06388 14.3869 -4.64963 5.66487 -89.5263 15.6932 -8.94849 2.36622 4.05037 -8.83564 2.76054 -18.7349 -9.24246 -0.455669 1.27772 -9.24246 -0.455674 124.569 -31.0587 -38.4159 60.9425 -39.8686 101.612 -5.76715 42.6485 -163.915 -7.44739 -3.86853 53.5905 110.871 -67.931 -76.0759 -101.184 19.7601 140.258 -70.2256 -19.484 -143.824 2.26627 -12.297 -142.884 130.791 -68.8005 68.571 156.865 -10.198 -53.4873 
-315.706 65.8054 -280.845 104.687 7.52356 80.7638 -145.743 -5.4231 139.268 -51.808 13.5998 79.7166 -28.1621 18.0702 138.004 51.745 5.46658 105.283 -97.9611 -9.46122 78.1693 -153.618 -35.893 -19.5867 85.7984 -30.8053 -12.1983 97.8869 -1.5844 16.8657 -5.80991 5.37464 -90.1428 16.3017 -11.5379 1.61973 4.68118 -11.4553 2.13262 -18.267 -11.4837 -1.97078 1.74566 -11.4837 -1.97079 118.923 -26.7058 -46.626 54.3872 -46.7833 100.767 -2.67508 38.0312 -168.198 -7.53548 -3.72914 51.1798 125.031 -60.342 -66.0447 -84.8778 33.4754 114.272 -117.069 20.6736 -123.011 -27.5994 41.8383 -123.771 143.816 -70.6375 76.06 150.411 -27.7622 -59.9215 
-323.246 67.1536 -289.1 105.976 7.87776 79.3673 -144.063 -4.7047 146.088 -60.1166 22.0003 78.0183 -23.7714 28.0271 128.77 72.7793 11.81 84.5672 -99.3105 -3.40344 61.9354 -153.35 -20.6579 -13.052 100.63 -34.7406 27.4776 85.9177 2.3002 26.1667 -6.02522 5.34648 -90.2142 16.3738 -11.9967 1.56843 4.75751 -11.9159 2.10241 -18.2227 -11.9052 -2.16319 1.79 -11.9052 -2.16319 117.266 -23.3146 -48.1573 54.7325 -47.0681 102.656 -2.23691 37.4095 -170.432 -7.51081 -3.53609 48.8337 131.812 -51.5388 -62.9383 -79.5708 32.4891 109.266 -152.834 34.5919 -103.089 -71.3818 52.0688 -75.3568 144.581 -70.0366 73.6266 148.575 -31.6398 -61.4222 
-329.926 68.1977 -296.872 107.298 8.17007 77.901 -142.817 -3.57169 154.695 -60.9388 33.0157 73.2952 -24.2982 35.7014 118.954 86.2799 10.117 66.5012 -95.3756 7.03441 47.6539 -154.155 2.09174 -11.5612 84.5974 -32.0933 72.8982 61.421 3.58163 46.7946 -6.29133 5.29414 -90.335 16.4876 -12.5806 1.44048 4.87719 -12.5048 2.0015 -18.146 -12.4224 -2.46847 1.86669 -12.4224 -2.46847 115.499 -19.4786 -49.8708 54.2099 -48.0042 103.528 -1.73264 36.282 -172.57 -7.48704 -3.35855 46.6192 137.891 -42.743 -61.06 -73.1038 31.7749 102.858 -174.089 35.4221 -88.402 -90.3074 44.9978 -50.9154 147.758 -70.0142 73.3062 145.859 -36.1661 -64.2584 
-336.524 68.6315 -303.216 108.624 8.38893 76.386 -143.213 -2.3221 166.229 -56.6265 50.3559 63.1975 -30.7953 39.705 106.816 94.7725 6.6043 54.159 -97.4148 18.0584 37.9361 -149.253 24.6975 -13.6181 11.8173 -56.2282 57.603 33.2575 -5.51925 63.7015 -6.54099 5.23927 -90.4629 16.6047 -13.1353 1.29539 5.00019 -13.0654 1.88228 -18.0652 -12.9066 -2.78149 1.94743 -12.9066 -2.7815 113.893 -15.4248 -51.3075 53.4099 -49.0489 103.69 -1.32632 35.0348 -174.456 -7.4579 -3.19151 44.5276 142.726 -34.0712 -60.5702 -66.5589 31.0379 97.5498 173.192 33.5165 -79.0552 -96.4978 38.6364 -40.5671 152.057 -70.3591 74.0549 142.635 -40.5097 -67.7967 
-344.606 68.3691 -310.387 109.93 8.52739 74.8434 -144.878 -1.15945 179.482 167.658 -45.6316 162.948 -109.443 -54.8178 -49.6631 98.7135 2.33413 45.0529 -104.47 -15.7483 58.3347 -157.817 13.1034 -9.81466 25.0764 -40.2152 67.1384 39.0409 -3.75199 66.8837 -6.76912 5.18458 -90.5896 16.72 -13.647 1.14663 5.12112 -13.5831 1.75747 -17.9844 -13.3487 -3.08495 2.02821 -13.3487 -3.08496 112.464 -11.2938 -52.4512 52.4997 -50.0772 103.296 -1.03378 33.8099 -176.067 -7.42339 -3.03429 42.5541 145.531 -25.7039 -61.6473 -60.2836 30.6111 94.8388 164.627 31.2523 -72.1671 -98.9162 34.2835 -35.2043 157.346 -71.0275 75.8248 138.836 -44.6006 -72.0477 
-354.553 67.567 -319.19 111.189 8.58262 73.2943 -147.402 -0.207038 -173.888 178.123 -35.0094 176.731 -81.5083 -62.7707 -34.0606 99.0575 -1.13975 38.7808 -39.011 -60.1955 -165.4 -172.738 -56.1322 -8.84004 153.315 -44.1941 67.2774 91.837 -0.959493 20.0739 -6.973 5.1325 -90.7079 16.8289 -14.1067 1.00628 5.23538 -14.0485 1.63878 -17.9073 -13.7437 -3.3644 2.10536 -13.7438 -3.3644 111.205 -7.21841 -53.3186 51.6862 -50.9718 102.573 -0.8643 32.7521 -177.406 -7.38344 -2.88628 40.6937 144.539 -17.9941 -64.6724 -55.8148 31.4043 97.6415 157.97 29.7536 -65.8478 -99.9864 31.3718 -32.0575 163.638 -71.9548 78.7032 134.404 -48.3584 -77.0257 
-365.031 67.4543 -328.431 112.379 8.55522 71.7589 -150.096 0.654654 -172.794 177.759 -31.3745 175.697 -62.4233 -65.3915 -24.4386 97.5281 -3.35127 34.8315 -19.9545 -37.8899 -87.6774 -173.544 -69.4253 -11.293 11.4585 -84.7085 -139.318 104.791 -24.1726 -19.9875 -7.15152 5.08527 -90.8117 16.9275 -14.5093 0.884345 5.33883 -14.4561 1.53585 -17.8372 -14.09 -3.60855 2.17542 -14.09 -3.60856 110.101 -3.31596 -53.9501 51.1972 -51.6423 101.792 -0.823301 31.9868 -178.485 -7.33814 -2.74682 38.942 135.738 -11.6367 -70.3025 -59.4927 33.8615 113.255 151.282 31.8229 -57.2892 -100.404 29.3796 -30.1022 171.046 -73.0451 82.8645 129.301 -51.6967 -82.7289 
-375.662 67.8396 -337.743 113.477 8.44898 70.2558 -152.727 1.42212 -171.818 177.785 -29.3143 175.477 -46.098 -65.3694 -15.8175 95.4308 -4.57482 32.4914 -10.4892 -49.9044 -63.9691 -164.667 -65.5485 -7.24805 64.3995 -67.9051 -82.2374 117.639 -29.9224 -19.4002 -7.30473 5.04485 -90.8971 17.0124 -14.8529 0.787724 5.4279 -14.8035 1.45551 -17.7774 -14.3877 -3.81012 2.23521 -14.3876 -3.81011 109.132 0.325315 -54.4046 51.2353 -52.0368 101.205 -0.911979 31.5989 -179.324 -7.2884 -2.61565 37.2947 112.545 -7.63219 -79.5083 -85.6187 9.1008 156.046 126.847 52.3388 -18.2275 -101.147 27.2088 -27.8868 179.747 -74.1697 88.518 123.529 -54.5321 -89.1149 
